<svg xmlns="http://www.w3.org/2000/svg" viewBox="0 0 178.51 70.76"><path fill="#df0011" d="M159.36 55.89c.09-.05.22-.21.22-.21 2.41-3.26 15.16-20.32 18.91-25.32.02-.02.02-.09 0-.12-.04-.04-.1-.09-.18-.04-.02 0-.03.02-.03.02h-.04c-4.44 4-15.75 12.47-27.64 6.18h-.13c-.07.07-.13.13-.1.19v.03c1.07 2.48 7.03 15.97 8.41 19.09.04.21.34.31.56.18"/><path fill="#f18a00" d="m141.54 22.34 1.28-4.21h-24.95l10.77 4.21z"/><path fill="#8f4899" d="m144.36 41.81 1.17-5.3h-16.89l.01-14.17-10.37-4.21-2.92 4.19 4.82.02v14.41l8.54 5.06z"/><path fill="#00afaa" d="m128.72 41.81-8.5-5.3h-14.6l.66 5.3h13.9c.52 14.54-10.75 24.95-16.07 28l.82.83c13.48-7.35 18.77-10.86 21.89-19.74 0 0 1.72-6.27 1.89-9.09Z"/><path fill="#5887da" d="M137.06 46.4h-8.41c-.01 10.19 4.45 17.47 16.09 24.23l.73-.67c-7.23-7.82-8.42-14.91-8.41-23.56m11.69 22.32H173l-8.01-4.23h-7.76c-.5 0-1.26-.41-1.26-1.24V21.86l-8.49-3.73v49.33c0 .7.55 1.26 1.26 1.26Z"/><path fill="#df0011" d="M124.34 6.94h-9.26c-.21 8.33-4.73 19.81-9.47 24.21l.62.84c3.87-3.14 12.63-8.74 18.1-25.05Zm40.16 16.68v12.55c3.44-1.06 5.98-2.17 8.51-3.99V19.39c0-.91-.82-1.23-1.26-1.23l-24.25-.02 8.49 4.23h7.41c.29 0 1.11.41 1.11 1.26Zm.29 28.75v12.12l8.22 4.23V41.11c-2.95 5.08-5.66 7.95-8.22 11.26"/><path fill="#3f3f41" d="M41.3 6.98h-6.17c-3.15 0-6.27 1.37-6.27 5.83v1.72c0 6.43 4.72 6.35 8.32 6.35h.88v1.3c0 2.44-3.43 5.86-7.76 2.08l-.1 1.97c2.35 1.64 5.59 1.32 6.35 1.13 2.69-.67 4.86-2.42 4.86-5.83V7.09zm-3.25 12.78h-2.06c-.64 0-1.01-.04-1.53-.16-.54-.12-2.25-.76-2.25-3.48v-4.18c0-2.85 1.6-3.83 3.08-3.83h2.77v11.64ZM25.41.08c-.94 0-1.72.75-1.72 1.66s.78 1.67 1.72 1.67 1.72-.74 1.72-1.67S26.36.08 25.41.08m-1.52 6.89-.11.1v13.62l.11.11h3.05l.11-.11V7.07l-.11-.1zM10.97.01H2.75l-.17.16v20.65h8.39c4.99 0 9.53-2.38 9.53-9V8.99c0-5.12-3.24-8.98-9.53-8.98m4.94 13.94c0 4.17-3.82 5.26-4.84 5.26H7.91V1.66h3.16c2.87 0 4.84 1.76 4.84 5.14v7.14ZM45.21.08c-.96 0-1.73.75-1.73 1.66s.77 1.67 1.73 1.67 1.72-.74 1.72-1.67S46.16.08 45.21.08m-1.54 6.89-.11.1v13.62l.11.11h3.06l.11-.11V7.07l-.11-.1zm52.74.09 2.37 8.89 2.6-8.94h1.35l2.6 8.94 2.4-8.97h1.43l-3.88 13.88h-1.72l-2.21-8.74-2.46 8.74h-1.72L93.48 6.98h2.9s0 .07.02.09Zm-24.13-.09h-6.11l-.1.1v13.62l.1.11h2.81l.1-.11V8.03h2.21c.57 0 1 .03 1.33.1 1.51.51 2.27 1.48 2.27 2.9v9.67l.1.11h2.81l.09-.11v-7.72c0-4.53-2.95-6-5.61-6Zm13.92 0c-2.68 0-5.48 1.05-5.48 4.69v4.53c0 3.22 2.8 4.53 5.48 4.53s5.48-1.65 5.48-4.54v-4.51c0-3.67-2.78-4.7-5.48-4.7m2.68 10.53c0 1.47-1.43 2.36-2.69 2.36s-2.67-.82-2.67-2.36v-7.15c0-1.96 1.43-2.52 2.67-2.52s2.69.8 2.69 2.52z"/><path fill="#5887da" d="m54.6 10.02 5.44 10.79h4.73L58.18 8.34z"/><path fill="#d12223" d="M54.07 10.17c-.65-1.35-3.06-6.38-3.51-7.33s0-.05.02-.06h.05c.56.32 1.12.55 1.66.72l1.77-.39V0h-4.05v20.79h4.05V10.17Z"/><path fill="#8f4899" d="M52.31 3.49c3.93 1.19 7.27-1.25 8.69-2.5h.02c.02-.02.06 0 .07.02v.05c-1.25 1.72-5.34 7.38-6.49 8.97l3.58-1.68L64.3.02h-2.73c-1.3 1.15-4.08 3.22-7.49 3.07l-1.77.39Z"/><g fill="#3e3a39"><path d="M27.51 44.46h1.6c.03 12.53-.91 17.25-8.23 25.41l.54.76c8.95-5.97 11.87-12.37 13.1-22.17v19.69c-.01.77.52 1.62 1.58 1.62h8.38c1.71 0 3.04-1.22 2.61-3.32-.21-1.05-1.67-8.8-1.67-8.8h-.63c-.44 3.08-.75 6.07-1.15 6.93-.24.51-.46.65-.81.7h-2.2c-.32 0-.79-.25-.79-.81V44.44h6.5l.76-2.66H34.53v-9.83c0-1.38.86-1.99.86-1.99l-6.27-1.78v13.59h-2l.4 2.66Zm-1.39-7.97.62-2.69H15.95c0-2.85 1.12-3.74 1.12-3.74L10.6 28.2v5.6H0l.47 2.69zM3.44 38.13c-.51 0-.86.37-.86.79v8.41c0 .48.42.8.79.8h7.21v4.36H3.97C4.08 62.42.55 64.44.55 64.44c5.18-1.64 8.6-11.2 8.6-11.2h1.44v11.73c0 .4-.18.83-.81.83H5.4v.72c2.1.31 3.72 2.38 3.82 4.12 6.04-.51 6.71-2.1 6.71-5.93V48.14h7.21c.4 0 .79-.34.79-.8v-8.41c0-.47-.39-.79-.7-.79H3.44Zm14.37 8.65H8.69c-.48 0-.79-.41-.79-.79v-5.67c0-.49.42-.79.79-.79h9.08c.47 0 .82.37.82.79v5.67c0 .41-.32.79-.79.79Z"/><path d="M24.3 64.25c-4.97-3.43-6.82-6.05-7.33-11.76h4.78c.01 2.87.03 7.56 2.83 11.44l-.29.32ZM40.97 33.8H37.1c-.32 1.66 1 5.45 6.1 6.31l.36-.26c-2.83-1.77-2.59-4.57-2.59-6.06Z"/></g><path fill="#3e3a39" d="M64.76 38.12c-.42 0-.77.37-.77.79v8.41c0 .48.42.8.79.8h25.05c.4 0 .79-.34.79-.8v-8.41c0-.47-.39-.79-.79-.79zm19.77 8.66H70.1c-.48 0-.79-.41-.79-.79v-5.68c0-.49.42-.79.79-.79h14.4c.47 0 .82.37.82.79v5.68c0 .41-.32.79-.79.79m14.89-10.32.62-2.66H80c0-2.85 1.12-3.77 1.12-3.77l-6.47-1.86v5.63H54.61l.47 2.66h44.35Zm.07 24.02.62-2.67H54.67l.47 2.67z"/><path fill="#8f4899" d="m60.95 49.82.47 2.66H73.9l-3.42-2.66z"/><path fill="#00afaa" d="m70.48 49.82 3.42 2.66h8.37l2.04-2.66z"/><path fill="#f18a00" d="M92.88 50.24c-.08-.12-.27-.42-.7-.42h-7.86l-2.04 2.66h5.17c.28-.02.67.48.12.79-.67.2-9.95 2.62-9.95 2.62l2.57 1.54s.14-.22.5-.31c0 0 12.6-3.46 12.84-3.54.53-.18.64-.77.45-1.1l-1.08-2.24"/><path fill="#5887da" d="M77.29 61.35c.98 0 1.9.26 2.71.7v-4.06c0-.3.17-.56.17-.56l-2.56-1.54-1.68.47c-.94.14-1.31.54-1.31 1.15v4.53c.79-.44 1.71-.69 2.68-.69Z"/><path fill="#df0011" d="M77.29 63.06c-2.13 0-3.85 1.72-3.85 3.85s1.72 3.85 3.85 3.85 3.85-1.72 3.85-3.85-1.72-3.85-3.85-3.85m0 5.39a1.54 1.54 0 1 1 .001-3.081 1.54 1.54 0 0 1-.001 3.081"/></svg>