<?xml version="1.0" encoding="UTF-8"?>
<svg id="_圖層_2" data-name="圖層 2" xmlns="http://www.w3.org/2000/svg" viewBox="0 0 178.51 70.76">
  <defs>
    <style>
      .cls-1 {
        fill: #8f4899;
      }

      .cls-2 {
        fill: #df0011;
      }

      .cls-3 {
        fill: #3e3a39;
      }

      .cls-4 {
        fill: #00afaa;
      }

      .cls-5 {
        fill: #3f3f41;
      }

      .cls-6 {
        fill: #d12223;
      }

      .cls-7 {
        fill: #5887da;
      }

      .cls-8 {
        fill: #f18a00;
      }
    </style>
  </defs>
  <g id="_图层_1" data-name="图层 1">
    <g>
      <g>
        <path class="cls-2" d="M159.36,55.89c.09-.05.22-.21.22-.21,2.41-3.26,15.16-20.32,18.91-25.32.02-.02.02-.09,0-.12-.04-.04-.1-.09-.18-.04-.02,0-.03.02-.03.02h-.04c-4.44,4-15.75,12.47-27.64,6.18h-.13c-.07.07-.13.13-.1.19v.03c1.07,2.48,7.03,15.97,8.41,19.09.04.21.34.31.56.18"/>
        <polygon class="cls-8" points="141.54 22.34 142.82 18.13 117.87 18.13 128.64 22.34 141.54 22.34"/>
        <polygon class="cls-1" points="144.36 41.81 145.53 36.51 128.64 36.51 128.65 22.34 118.28 18.13 115.36 22.32 120.18 22.34 120.18 36.75 128.72 41.81 144.36 41.81"/>
        <path class="cls-4" d="M128.72,41.81l-8.5-5.3h-14.6l.66,5.3h13.9c.52,14.54-10.75,24.95-16.07,28l.82.83c13.48-7.35,18.77-10.86,21.89-19.74,0,0,1.72-6.27,1.89-9.09Z"/>
        <path class="cls-7" d="M137.06,46.4h-8.41c-.01,10.19,4.45,17.47,16.09,24.23l.73-.67c-7.23-7.82-8.42-14.91-8.41-23.56Z"/>
        <path class="cls-7" d="M148.75,68.72h24.25l-8.01-4.23h-7.76c-.5,0-1.26-.41-1.26-1.24V21.86l-8.49-3.73s0,48.63,0,49.33.55,1.26,1.26,1.26Z"/>
        <path class="cls-2" d="M124.34,6.94h-9.26c-.21,8.33-4.73,19.81-9.47,24.21l.62.84c3.87-3.14,12.63-8.74,18.1-25.05Z"/>
        <path class="cls-2" d="M164.5,23.62v12.55c3.44-1.06,5.98-2.17,8.51-3.99v-12.79c0-.91-.82-1.23-1.26-1.23l-24.25-.02,8.49,4.23h7.41c.29,0,1.11.41,1.11,1.26Z"/>
        <path class="cls-2" d="M164.79,52.37v12.12l8.22,4.23v-27.61c-2.95,5.08-5.66,7.95-8.22,11.26Z"/>
      </g>
      <g>
        <path class="cls-5" d="M41.3,6.98h-6.17c-3.15,0-6.27,1.37-6.27,5.83v1.72c0,6.43,4.72,6.35,8.32,6.35h.88v1.3c0,2.44-3.43,5.86-7.76,2.08l-.1,1.97c2.35,1.64,5.59,1.32,6.35,1.13,2.69-.67,4.86-2.42,4.86-5.83,0-.13,0,.26,0-14.44l-.11-.11ZM38.05,19.76h-2.06c-.64,0-1.01-.04-1.53-.16-.54-.12-2.25-.76-2.25-3.48v-4.18c0-2.85,1.6-3.83,3.08-3.83h2.77v11.64Z"/>
        <path class="cls-5" d="M25.41.08c-.94,0-1.72.75-1.72,1.66s.78,1.67,1.72,1.67,1.72-.74,1.72-1.67-.77-1.66-1.72-1.66Z"/>
        <polygon class="cls-5" points="23.89 6.97 23.78 7.07 23.78 20.69 23.89 20.8 26.94 20.8 27.05 20.69 27.05 7.07 26.94 6.97 23.89 6.97"/>
        <path class="cls-5" d="M10.97.01H2.75l-.17.16v20.65h8.39c4.99,0,9.53-2.38,9.53-9v-2.83C20.5,3.87,17.26.01,10.97.01ZM15.91,13.95c0,4.17-3.82,5.26-4.84,5.26h-3.16V1.66h3.16c2.87,0,4.84,1.76,4.84,5.14v7.14Z"/>
        <path class="cls-5" d="M45.21.08c-.96,0-1.73.75-1.73,1.66s.77,1.67,1.73,1.67,1.72-.74,1.72-1.67-.77-1.66-1.72-1.66Z"/>
        <polygon class="cls-5" points="43.67 6.97 43.56 7.07 43.56 20.69 43.67 20.8 46.73 20.8 46.84 20.69 46.84 7.07 46.73 6.97 43.67 6.97"/>
        <path class="cls-5" d="M96.41,7.06l2.37,8.89,2.6-8.94h1.35l2.6,8.94,2.4-8.97h1.43l-3.88,13.88h-1.72l-2.21-8.74-2.46,8.74h-1.72l-3.69-13.88h2.9s0,.07.02.09Z"/>
        <path class="cls-5" d="M72.28,6.97h-6.11l-.1.1v13.62l.1.11h2.81l.1-.11v-12.66h2.21c.57,0,1,.03,1.33.1,1.51.51,2.27,1.48,2.27,2.9v9.67l.1.11h2.81l.09-.11v-7.72c0-4.53-2.95-6-5.61-6Z"/>
        <path class="cls-5" d="M86.2,6.97c-2.68,0-5.48,1.05-5.48,4.69v4.53c0,3.22,2.8,4.53,5.48,4.53s5.48-1.65,5.48-4.54v-4.51c0-3.67-2.78-4.7-5.48-4.7ZM88.88,17.5c0,1.47-1.43,2.36-2.69,2.36s-2.67-.82-2.67-2.36v-7.15c0-1.96,1.43-2.52,2.67-2.52s2.69.8,2.69,2.52v7.15Z"/>
        <g>
          <polygon class="cls-7" points="54.6 10.02 60.04 20.81 64.77 20.81 58.18 8.34 54.6 10.02"/>
          <path class="cls-6" d="M54.07,10.17h0s0,0,0,0c-.65-1.35-3.06-6.38-3.51-7.33h0s0-.05.02-.06c.02,0,.04,0,.05,0h0c.56.32,1.12.55,1.66.72l1.77-.39V0h-4.05v20.79h4.05v-10.49s0-.12,0-.13h0,0Z"/>
          <path class="cls-1" d="M52.31,3.49c3.93,1.19,7.27-1.25,8.69-2.5.02,0,.02,0,.02,0,.02-.02.06,0,.07.02v.05h0c-1.25,1.72-5.34,7.38-6.49,8.97l3.58-1.68L64.3.02h-2.71s0,0-.02,0c-1.3,1.15-4.08,3.22-7.49,3.07l-1.77.39Z"/>
        </g>
      </g>
      <g>
        <path class="cls-3" d="M27.51,44.46h1.6c.03,12.53-.91,17.25-8.23,25.41l.54.76c8.95-5.97,11.87-12.37,13.1-22.17v19.69c-.01.77.52,1.62,1.58,1.62h8.38c1.71,0,3.04-1.22,2.61-3.32-.21-1.05-1.67-8.8-1.67-8.8h-.63c-.44,3.08-.75,6.07-1.15,6.93-.24.51-.46.65-.81.7h-2.2c-.32,0-.79-.25-.79-.81v-20.03h6.5l.76-2.66h-12.57v-9.83c0-1.38.86-1.99.86-1.99l-6.27-1.78v13.59h-2l.4,2.66Z"/>
        <path class="cls-3" d="M26.12,36.49l.62-2.69h-10.79c0-2.85,1.12-3.74,1.12-3.74l-6.47-1.86v5.6H0l.47,2.69h25.65Z"/>
        <path class="cls-3" d="M3.44,38.13c-.51,0-.86.37-.86.79v8.41c0,.48.42.8.79.8h7.21v4.36H3.97c.11,9.93-3.42,11.95-3.42,11.95,5.18-1.64,8.6-11.2,8.6-11.2h1.44v11.73c0,.4-.18.83-.81.83-.92,0-4.38,0-4.38,0v.72c2.1.31,3.72,2.38,3.82,4.12,6.04-.51,6.71-2.1,6.71-5.93v-16.57h7.21c.4,0,.79-.34.79-.8v-8.41c0-.47-.39-.79-.7-.79H3.44ZM17.81,46.78h-9.12c-.48,0-.79-.41-.79-.79v-5.67c0-.49.42-.79.79-.79h9.08c.47,0,.82.37.82.79v5.67c0,.41-.32.79-.79.79Z"/>
        <path class="cls-3" d="M24.3,64.25c-4.97-3.43-6.82-6.05-7.33-11.76h4.78c.01,2.87.03,7.56,2.83,11.44l-.29.32Z"/>
        <path class="cls-3" d="M40.97,33.8h-3.87c-.32,1.66,1,5.45,6.1,6.31l.36-.26c-2.83-1.77-2.59-4.57-2.59-6.06Z"/>
      </g>
      <g>
        <path class="cls-3" d="M64.76,38.12c-.42,0-.77.37-.77.79v8.41c0,.48.42.8.79.8h25.05c.4,0,.79-.34.79-.8v-8.41c0-.47-.39-.79-.79-.79h-25.07ZM84.53,46.78h-14.43c-.48,0-.79-.41-.79-.79v-5.68c0-.49.42-.79.79-.79h14.4c.47,0,.82.37.82.79v5.68c0,.41-.32.79-.79.79Z"/>
        <path class="cls-3" d="M99.42,36.46l.62-2.66h-20.04c0-2.85,1.12-3.77,1.12-3.77l-6.47-1.86v5.63h-20.04l.47,2.66h44.35Z"/>
        <polygon class="cls-3" points="99.49 60.48 100.11 57.81 74.51 57.81 54.67 57.81 55.14 60.48 99.49 60.48"/>
        <polygon class="cls-1" points="60.95 49.82 61.42 52.48 73.9 52.48 70.48 49.82 60.95 49.82"/>
        <polygon class="cls-4" points="70.48 49.82 73.9 52.48 82.27 52.48 84.31 49.82 70.48 49.82"/>
        <path class="cls-8" d="M92.88,50.24c-.08-.12-.27-.42-.7-.42h-7.86l-2.04,2.66h5.17c.28-.02.67.48.12.79-.67.2-9.95,2.62-9.95,2.62l2.57,1.54s.14-.22.5-.31c0,0,12.6-3.46,12.84-3.54.53-.18.64-.77.45-1.1l-1.08-2.24"/>
        <path class="cls-7" d="M77.29,61.35c.98,0,1.9.26,2.71.7v-4.06c0-.3.17-.56.17-.56l-2.56-1.54-1.68.47c-.94.14-1.31.54-1.31,1.15v4.53c.79-.44,1.71-.69,2.68-.69Z"/>
        <path class="cls-2" d="M77.29,63.06c-2.13,0-3.85,1.72-3.85,3.85s1.72,3.85,3.85,3.85,3.85-1.72,3.85-3.85-1.72-3.85-3.85-3.85ZM77.29,68.45c-.85,0-1.54-.69-1.54-1.54s.69-1.54,1.54-1.54,1.54.69,1.54,1.54-.69,1.54-1.54,1.54Z"/>
      </g>
    </g>
  </g>
</svg>